<mxfile host="app.diagrams.net" modified="2021-12-02T10:27:13.354Z" agent="5.0 (Windows NT 10.0; Win64; x64) AppleWebKit/537.36 (KHTML, like Gecko) Chrome/95.0.4638.69 Safari/537.36 OPR/81.0.4196.60" etag="J5efsAmri52cq7nWkLqj" version="15.6.0" type="github">
  <diagram id="q-hbQRYJUxLoRGIYIz2q" name="Page-1">
    <mxGraphModel dx="742" dy="477" grid="1" gridSize="10" guides="1" tooltips="1" connect="1" arrows="1" fold="1" page="1" pageScale="1" pageWidth="827" pageHeight="1169" math="0" shadow="0">
      <root>
        <mxCell id="0" />
        <mxCell id="1" parent="0" />
        <mxCell id="zo69sMLDYlGEmFThV98X-3" style="edgeStyle=orthogonalEdgeStyle;rounded=0;orthogonalLoop=1;jettySize=auto;html=1;exitX=1;exitY=0.5;exitDx=0;exitDy=0;entryX=0;entryY=0.5;entryDx=0;entryDy=0;" edge="1" parent="1" source="zo69sMLDYlGEmFThV98X-1" target="zo69sMLDYlGEmFThV98X-2">
          <mxGeometry relative="1" as="geometry" />
        </mxCell>
        <mxCell id="zo69sMLDYlGEmFThV98X-1" value="современное образование&amp;nbsp;" style="ellipse;whiteSpace=wrap;html=1;" vertex="1" parent="1">
          <mxGeometry x="150" y="80" width="120" height="80" as="geometry" />
        </mxCell>
        <mxCell id="zo69sMLDYlGEmFThV98X-2" value="e-learning" style="ellipse;whiteSpace=wrap;html=1;" vertex="1" parent="1">
          <mxGeometry x="320" y="80" width="120" height="80" as="geometry" />
        </mxCell>
        <mxCell id="zo69sMLDYlGEmFThV98X-4" value="&lt;ul&gt;&lt;li&gt;возможность дистанционного взаимодействия&lt;/li&gt;&lt;li&gt;&lt;span style=&quot;font-family: sans-serif ; background-color: rgb(255 , 255 , 255)&quot;&gt;своевременный круглосуточный доступ к электронным учебным материалам&amp;nbsp;&lt;/span&gt;&lt;/li&gt;&lt;/ul&gt;" style="text;html=1;strokeColor=none;fillColor=none;align=left;verticalAlign=middle;whiteSpace=wrap;rounded=0;" vertex="1" parent="1">
          <mxGeometry x="275" y="130" width="210" height="160" as="geometry" />
        </mxCell>
      </root>
    </mxGraphModel>
  </diagram>
</mxfile>
